<svg width="150" height="36" viewBox="0 0 150 36" fill="none" xmlns="http://www.w3.org/2000/svg">
<path d="M98.0529 27V11.913H99.7522V14.231H99.9093C100.211 13.4518 100.711 12.8395 101.412 12.3943C102.119 11.9424 102.967 11.7165 103.956 11.7165C104.997 11.7165 105.852 11.9621 106.52 12.4532C107.194 12.9378 107.698 13.6057 108.032 14.4569H108.16C108.501 13.6188 109.054 12.9541 109.82 12.463C110.593 11.9653 111.529 11.7165 112.629 11.7165C114.031 11.7165 115.137 12.1585 115.949 13.0425C116.761 13.92 117.167 15.2034 117.167 16.8929V27H115.419V16.8929C115.419 15.7011 115.114 14.8073 114.505 14.2114C113.896 13.6155 113.094 13.3175 112.099 13.3175C110.946 13.3175 110.059 13.6712 109.437 14.3784C108.815 15.0856 108.504 15.9827 108.504 17.0697V27H106.716V16.7357C106.716 15.7142 106.431 14.8891 105.862 14.2605C105.292 13.6319 104.49 13.3175 103.455 13.3175C102.761 13.3175 102.136 13.4878 101.579 13.8283C101.029 14.1688 100.594 14.6436 100.273 15.2525C99.9585 15.855 99.8013 16.5491 99.8013 17.3349V27H98.0529ZM121.262 27V11.913H123.021V27H121.262ZM122.156 9.31988C121.796 9.31988 121.488 9.19873 121.233 8.95645C120.977 8.70762 120.85 8.40968 120.85 8.06262C120.85 7.71557 120.977 7.4209 121.233 7.17862C121.488 6.92978 121.796 6.80537 122.156 6.80537C122.516 6.80537 122.824 6.92978 123.079 7.17862C123.335 7.4209 123.463 7.71557 123.463 8.06262C123.463 8.40968 123.335 8.70762 123.079 8.95645C122.824 9.19873 122.516 9.31988 122.156 9.31988ZM128.84 17.5706V27H127.091V11.913H128.79V14.2801H128.948C129.301 13.5074 129.851 12.8886 130.598 12.4237C131.351 11.9522 132.281 11.7165 133.387 11.7165C134.402 11.7165 135.293 11.9293 136.059 12.355C136.832 12.774 137.431 13.3929 137.856 14.2114C138.289 15.0299 138.505 16.035 138.505 17.2268V27H136.756V17.3349C136.756 16.0973 136.409 15.1183 135.715 14.398C135.028 13.6777 134.104 13.3175 132.945 13.3175C132.153 13.3175 131.449 13.4878 130.833 13.8283C130.218 14.1688 129.73 14.6599 129.37 15.3017C129.016 15.9368 128.84 16.6931 128.84 17.5706ZM148.498 11.913V13.4354H141.298V11.913H148.498ZM143.548 8.29836H145.306V23.0613C145.306 23.6899 145.414 24.1843 145.63 24.5444C145.846 24.898 146.128 25.1501 146.475 25.3007C146.822 25.4448 147.192 25.5168 147.585 25.5168C147.814 25.5168 148.01 25.5037 148.174 25.4775C148.338 25.4448 148.482 25.4121 148.606 25.3793L148.979 26.9607C148.809 27.0262 148.6 27.0851 148.351 27.1375C148.102 27.1964 147.794 27.2259 147.428 27.2259C146.786 27.2259 146.167 27.0851 145.571 26.8036C144.982 26.522 144.497 26.1029 144.117 25.5463C143.738 24.9897 143.548 24.2989 143.548 23.4738V8.29836Z" fill="#F1FAF2"/>
<path d="M47.3074 10.8111C51.509 8.18102 56.0935 9.46931 58.6675 12.5342C61.3677 15.748 61.7332 20.5058 59.5291 24.1056C58.2345 26.2171 56.4307 27.5914 54.1308 28.189C51.8353 28.7867 49.6551 28.396 47.5924 27.2077C47.4706 27.4193 47.5206 27.6077 47.5206 27.7844C47.5185 29.5331 47.5228 31.2795 47.5272 33.0283C47.5293 34.4421 46.6916 35.5072 45.4927 35.6118C44.2264 35.7211 43.1711 34.7189 43.0906 33.3236C43.0754 33.0469 43.0863 32.7655 43.0863 32.4864C43.0863 25.7194 43.0863 18.9524 43.0819 12.1831C43.0819 11.8087 43.0971 11.4366 43.219 11.0855C43.5149 10.2321 44.0937 9.69953 44.927 9.5414C45.7408 9.38792 46.4349 9.67628 46.9854 10.3414C47.0985 10.4809 47.1921 10.6413 47.3074 10.8111ZM47.5337 18.9013C47.4031 21.0802 49.1242 23.7498 52.0507 23.7707C54.5399 23.7893 56.5591 21.6127 56.57 18.9455C56.5808 16.2479 54.5595 14.0737 52.042 14.0806C49.2287 14.0899 47.4271 16.6689 47.5337 18.9013Z" fill="#F1FAF2"/>
<path d="M34.2353 10.6552C34.3789 10.5412 34.3811 10.3994 34.4311 10.2831C34.8771 9.25993 35.841 8.72508 36.8746 8.92971C37.8581 9.12273 38.587 10.0087 38.6631 11.1063C38.6718 11.2365 38.6675 11.3668 38.6675 11.497C38.6675 16.0897 38.6675 20.6801 38.6696 25.2729C38.6696 25.6473 38.6501 26.0193 38.5195 26.3681C38.167 27.303 37.5099 27.8355 36.5787 27.896C35.667 27.9541 34.9707 27.5099 34.5116 26.6611C34.4354 26.5193 34.3789 26.3635 34.3136 26.217C34.1569 26.1798 34.0851 26.303 33.9938 26.3728C28.887 30.247 21.8504 27.5169 20.2076 20.9173C18.9543 15.8828 21.6415 10.6203 26.2195 9.12505C28.9023 8.24836 31.4415 8.67624 33.7936 10.3226C33.9372 10.4226 34.0764 10.5343 34.2353 10.6552ZM24.3308 18.4128C24.3395 18.8593 24.3765 19.3012 24.481 19.736C25.2904 23.1079 28.985 24.5404 31.5155 22.4637C33.7718 20.6127 34.0068 16.9897 31.9985 14.8386C30.9497 13.7155 29.666 13.2225 28.1951 13.4736C25.917 13.8666 24.3395 15.913 24.3308 18.4128Z" fill="#F1FAF2"/>
<path d="M71.4945 14.6711C72.0907 13.906 72.6695 13.1689 73.2461 12.4294C73.9141 11.5713 74.569 10.7039 75.25 9.85744C75.8549 9.104 76.6186 8.79239 77.539 9.04819C78.9816 9.45049 79.6387 11.2015 78.8532 12.5596C78.6987 12.827 78.4964 13.0619 78.3071 13.3061C77.0843 14.8804 75.8593 16.45 74.6364 18.0244C74.2774 18.4871 74.3492 18.3988 74.6582 18.7941C75.9811 20.4963 77.3084 22.1939 78.6313 23.8961C79.6888 25.2565 79.1774 27.2052 77.6261 27.733C76.7644 28.0261 75.8484 27.7284 75.2348 26.9401C74.1556 25.5541 73.0807 24.1635 72.0037 22.7752C71.9036 22.6473 71.8057 22.5148 71.7012 22.3915C71.4728 22.1218 71.4619 22.1148 71.2334 22.4055C70.2608 23.6449 69.2947 24.8914 68.3287 26.1355C68.1176 26.4076 67.9153 26.6866 67.6999 26.9564C66.8839 27.9842 65.5153 28.1377 64.571 27.3098C63.5984 26.4564 63.4722 24.9867 64.2925 23.9263C65.635 22.1939 66.9862 20.4684 68.3308 18.7383C68.5941 18.3988 68.5941 18.3941 68.3287 18.0546C67.0275 16.3826 65.7264 14.7106 64.4187 13.0433C63.8987 12.3805 63.618 11.6597 63.8247 10.7806C64.2424 8.99703 66.2486 8.36219 67.4975 9.62722C67.6368 9.76675 67.7542 9.92953 67.8783 10.0853C69.0358 11.5713 70.1912 13.0596 71.3487 14.5455C71.3749 14.5711 71.4053 14.5897 71.4945 14.6711Z" fill="#8DBC1A"/>
<path d="M9.52601 8.35991C11.8868 8.35526 13.9473 9.21567 15.7315 10.8481C16.7411 11.7713 16.8543 13.2689 16.0166 14.2735C15.2855 15.1525 14.0975 15.3316 13.1749 14.6944C12.9856 14.5642 12.8181 14.3991 12.6418 14.2456C10.3659 12.2783 6.81273 12.8643 5.19608 15.4711C3.401 18.3663 4.88275 22.3358 8.10518 23.2148C9.79146 23.6752 11.3515 23.3497 12.7114 22.1567C13.4142 21.5405 14.1801 21.3196 15.0418 21.6591C16.4539 22.2125 16.9261 24.0984 15.9774 25.3449C15.812 25.5611 15.6162 25.7472 15.4095 25.9169C13.3142 27.6424 10.9512 28.4005 8.32276 28.0401C4.89799 27.5703 2.35878 25.6751 0.872674 22.3334C-1.30317 17.4338 0.620275 11.0946 6.3014 8.93895C7.38498 8.52967 8.37281 8.35991 9.52601 8.35991Z" fill="#F1FAF2"/>
<path d="M83.167 7.86505H82.4446V7.41159H84.4094V7.86505H83.687V9.82074H83.1648V7.86505H83.167Z" fill="#F1FAF2"/>
<path d="M86.7446 9.82303L86.7425 8.37661L86.0788 9.56724H85.8438L85.1824 8.40685V9.82303H84.6928V7.41156H85.1236L85.9679 8.90914L86.799 7.41156H87.2277L87.2342 9.82303H86.7446Z" fill="#F1FAF2"/>
</svg>
