<svg width="243" height="44" viewBox="0 0 243 44" fill="none" xmlns="http://www.w3.org/2000/svg">
    <path d="M144.247 32.3184C143.383 32.3184 142.727 32.0813 142.281 31.6071C141.835 31.133 141.612 30.5054 141.612 29.7244V1.35836H143.996V30.2265H147.302V32.3184H144.247ZM153.815 5.08193C153.257 5.08193 152.838 4.94247 152.559 4.66355C152.308 4.38463 152.183 4.02203 152.183 3.57576V3.15739C152.183 2.71111 152.308 2.34852 152.559 2.0696C152.838 1.79068 153.257 1.65122 153.815 1.65122C154.372 1.65122 154.777 1.79068 155.028 2.0696C155.307 2.34852 155.446 2.71111 155.446 3.15739V3.57576C155.446 4.02203 155.307 4.38463 155.028 4.66355C154.777 4.94247 154.372 5.08193 153.815 5.08193ZM152.643 10.8974H155.028V32.3184H152.643V10.8974ZM176.665 28.8877H176.539C175.982 30.087 175.159 31.0493 174.071 31.7745C173.011 32.4718 171.658 32.8204 170.013 32.8204C167.251 32.8204 165.09 31.8442 163.528 29.8918C161.966 27.9393 161.185 25.178 161.185 21.6079C161.185 18.0377 161.966 15.2764 163.528 13.324C165.09 11.3715 167.251 10.3953 170.013 10.3953C171.658 10.3953 173.025 10.7579 174.113 11.4831C175.201 12.1804 176.009 13.1287 176.539 14.3281H176.665V10.8974H179.05V40.6859H176.665V28.8877ZM170.557 30.6867C171.393 30.6867 172.174 30.5751 172.899 30.352C173.653 30.1288 174.308 29.8081 174.866 29.3897C175.424 28.9434 175.856 28.4274 176.163 27.8417C176.498 27.2281 176.665 26.5447 176.665 25.7917V17.2986C176.665 16.6013 176.498 15.9598 176.163 15.374C175.856 14.7883 175.424 14.2863 174.866 13.8679C174.308 13.4495 173.653 13.1287 172.899 12.9056C172.174 12.6546 171.393 12.5291 170.557 12.5291C168.409 12.5291 166.735 13.2124 165.536 14.5791C164.337 15.9458 163.737 17.7867 163.737 20.1017V23.114C163.737 25.4291 164.337 27.2699 165.536 28.6366C166.735 30.0033 168.409 30.6867 170.557 30.6867ZM200.229 28.9295H200.061C199.866 29.4315 199.601 29.9197 199.266 30.3938C198.932 30.868 198.513 31.2864 198.011 31.649C197.509 31.9837 196.91 32.2626 196.212 32.4857C195.543 32.7088 194.748 32.8204 193.828 32.8204C191.54 32.8204 189.755 32.1231 188.472 30.7285C187.189 29.306 186.548 27.2839 186.548 24.662V10.8974H188.933V24.2018C188.933 26.4053 189.407 28.037 190.355 29.0968C191.303 30.1567 192.67 30.6867 194.455 30.6867C195.208 30.6867 195.919 30.5891 196.589 30.3938C197.286 30.1986 197.9 29.9057 198.43 29.5152C198.988 29.1247 199.42 28.6366 199.727 28.0509C200.061 27.4373 200.229 26.726 200.229 25.9172V10.8974H202.613V32.3184H200.229V28.9295ZM211.587 5.08193C211.029 5.08193 210.61 4.94247 210.332 4.66355C210.081 4.38463 209.955 4.02203 209.955 3.57576V3.15739C209.955 2.71111 210.081 2.34852 210.332 2.0696C210.61 1.79068 211.029 1.65122 211.587 1.65122C212.145 1.65122 212.549 1.79068 212.8 2.0696C213.079 2.34852 213.218 2.71111 213.218 3.15739V3.57576C213.218 4.02203 213.079 4.38463 212.8 4.66355C212.549 4.94247 212.145 5.08193 211.587 5.08193ZM210.415 10.8974H212.8V32.3184H210.415V10.8974ZM234.437 28.8877H234.312C233.754 30.087 232.931 31.0493 231.843 31.7745C230.783 32.4718 229.43 32.8204 227.785 32.8204C225.024 32.8204 222.862 31.8442 221.3 29.8918C219.738 27.9393 218.957 25.178 218.957 21.6079C218.957 18.0377 219.738 15.2764 221.3 13.324C222.862 11.3715 225.024 10.3953 227.785 10.3953C229.43 10.3953 230.797 10.7579 231.885 11.4831C232.973 12.1804 233.782 13.1287 234.312 14.3281H234.437V1.35836H236.822V32.3184H234.437V28.8877ZM228.329 30.6867C229.165 30.6867 229.946 30.5751 230.672 30.352C231.425 30.1288 232.08 29.8081 232.638 29.3897C233.196 28.9434 233.628 28.4274 233.935 27.8417C234.27 27.2281 234.437 26.5447 234.437 25.7917V17.2986C234.437 16.6013 234.27 15.9598 233.935 15.374C233.628 14.7883 233.196 14.2863 232.638 13.8679C232.08 13.4495 231.425 13.1287 230.672 12.9056C229.946 12.6546 229.165 12.5291 228.329 12.5291C226.181 12.5291 224.508 13.2124 223.308 14.5791C222.109 15.9458 221.509 17.7867 221.509 20.1017V23.114C221.509 25.4291 222.109 27.2699 223.308 28.6366C224.508 30.0033 226.181 30.6867 228.329 30.6867Z" fill="white" />
    <path d="M68.9752 7.51185C75.1011 3.67723 81.7852 5.55555 85.5382 10.0242C89.4751 14.7098 90.008 21.6467 86.7944 26.8952C84.9069 29.9737 82.277 31.9775 78.9238 32.8489C75.5769 33.7202 72.3982 33.1506 69.3908 31.4181C69.2131 31.7266 69.2861 32.0012 69.2861 32.2589C69.2829 34.8086 69.2893 37.3548 69.2956 39.9044C69.2988 41.9658 68.0774 43.5187 66.3294 43.6712C64.4831 43.8306 62.9445 42.3693 62.8271 40.335C62.8049 39.9316 62.8208 39.5213 62.8208 39.1145C62.8208 29.2482 62.8208 19.3819 62.8145 9.51223C62.8145 8.96637 62.8367 8.42389 63.0143 7.91193C63.4458 6.66762 64.2896 5.89121 65.5046 5.66065C66.6911 5.43688 67.7031 5.8573 68.5057 6.82698C68.6707 7.03041 68.8071 7.26435 68.9752 7.51185ZM69.3051 19.3073C69.1148 22.4842 71.6241 26.3764 75.891 26.407C79.5202 26.4341 82.4641 23.2606 82.48 19.3717C82.4959 15.4388 79.5487 12.2687 75.8783 12.2789C71.7764 12.2924 69.1497 16.0525 69.3051 19.3073Z" fill="white" />
    <path d="M49.9147 7.2843C50.1241 7.11817 50.1272 6.91135 50.2002 6.74182C50.8505 5.25002 52.2559 4.47021 53.7628 4.76857C55.1967 5.04998 56.2594 6.34175 56.3705 7.94205C56.3831 8.13192 56.3768 8.32178 56.3768 8.51165C56.3768 15.2078 56.3768 21.9006 56.38 28.5968C56.38 29.1427 56.3514 29.6852 56.1611 30.1937C55.6472 31.5567 54.6891 32.3331 53.3313 32.4213C52.0021 32.506 50.9869 31.8585 50.3176 30.6209C50.2065 30.4141 50.1241 30.187 50.0289 29.9734C49.8005 29.9191 49.6958 30.0988 49.5625 30.2005C42.117 35.849 31.8575 31.8686 29.4624 22.2465C27.6351 14.9061 31.553 7.23344 38.2277 5.05337C42.1392 3.77516 45.8413 4.39901 49.2707 6.79946C49.4801 6.94525 49.6831 7.108 49.9147 7.2843ZM35.474 18.5949C35.4867 19.2459 35.5407 19.8901 35.6929 20.5241C36.8731 25.4403 42.2597 27.5288 45.9492 24.5011C49.239 21.8023 49.5816 16.52 46.6535 13.3838C45.1244 11.7462 43.2527 11.0274 41.1082 11.3936C37.7867 11.9665 35.4867 14.9502 35.474 18.5949Z" fill="white" />
    <path d="M104.238 13.1409C105.107 12.0254 105.951 10.9507 106.791 9.87248C107.765 8.6214 108.72 7.35675 109.713 6.12262C110.595 5.0241 111.708 4.56978 113.05 4.94273C115.154 5.52929 116.112 8.08231 114.966 10.0623C114.741 10.4523 114.446 10.7947 114.17 11.1507C112.387 13.446 110.601 15.7346 108.818 18.03C108.295 18.7047 108.4 18.5758 108.85 19.1522C110.779 21.634 112.714 24.1091 114.643 26.5909C116.185 28.5743 115.439 31.4156 113.177 32.1852C111.921 32.6124 110.585 32.1784 109.691 31.029C108.117 29.0083 106.55 26.9808 104.98 24.9567C104.834 24.7702 104.691 24.577 104.539 24.3973C104.206 24.004 104.19 23.9938 103.857 24.4176C102.439 26.2247 101.03 28.042 99.6217 29.8559C99.314 30.2526 99.019 30.6595 98.7049 31.0528C97.5153 32.5514 95.5198 32.7751 94.143 31.5681C92.725 30.3238 92.541 28.181 93.737 26.635C95.6943 24.1091 97.6644 21.5934 99.6249 19.0708C100.009 18.5758 100.009 18.5691 99.6217 18.074C97.7246 15.6363 95.8275 13.1985 93.921 10.7676C93.1628 9.80128 92.7535 8.75024 93.0549 7.46864C93.664 4.86814 96.5889 3.94254 98.4099 5.78696C98.6129 5.99039 98.7842 6.22772 98.965 6.45488C100.653 8.6214 102.337 10.7913 104.025 12.9578C104.063 12.9951 104.107 13.0222 104.238 13.1409Z" fill="#8DBC1A" />
    <path d="M13.8889 3.93753C17.3309 3.93075 20.3351 5.18522 22.9365 7.56533C24.4085 8.91135 24.5734 11.0948 23.3521 12.5595C22.2862 13.8411 20.554 14.1022 19.209 13.1732C18.933 12.9833 18.6887 12.7426 18.4317 12.5188C15.1134 9.65047 9.93293 10.5049 7.57586 14.3056C4.95865 18.5267 7.11904 24.3143 11.8173 25.5959C14.2759 26.2672 16.5505 25.7925 18.5332 24.0532C19.5579 23.1547 20.6746 22.8326 21.9309 23.3276C23.9897 24.1346 24.6781 26.8843 23.295 28.7015C23.0539 29.0169 22.7684 29.2881 22.467 29.5356C19.412 32.0513 15.9668 33.1566 12.1346 32.6311C7.14125 31.9462 3.43909 29.183 1.27236 24.3109C-1.90002 17.1672 0.90436 7.92472 9.18743 4.78176C10.7673 4.18503 12.2075 3.93753 13.8889 3.93753Z" fill="white" />
    <path d="M121.256 3.21583H120.203V2.55469H123.068V3.21583H122.015V6.06722H121.253V3.21583H121.256Z" fill="white" />
    <path d="M126.472 6.07061L126.469 3.96173L125.501 5.69766H125.159L124.194 4.00581V6.07061H123.48V2.55469H124.109L125.339 4.73815L126.551 2.55469H127.176L127.186 6.07061H126.472Z" fill="white" />
</svg>