<svg width="133" height="54" viewBox="0 0 133 54" fill="none" xmlns="http://www.w3.org/2000/svg">
<path d="M72.1146 16.1216C78.5194 12.1124 85.5079 14.0762 89.4317 18.7483C93.5479 23.6473 94.1051 30.9001 90.7452 36.3875C88.7717 39.6062 86.022 41.7012 82.5161 42.6123C79.0169 43.5233 75.6934 42.9277 72.5491 41.1163C72.3634 41.4389 72.4396 41.726 72.4396 41.9955C72.4363 44.6612 72.443 47.3234 72.4496 49.9891C72.4529 52.1444 71.1759 53.7679 69.3484 53.9274C67.418 54.094 65.8093 52.5662 65.6866 50.4393C65.6634 50.0174 65.68 49.5885 65.68 49.1631C65.68 38.8476 65.68 28.5321 65.6733 18.2131C65.6733 17.6423 65.6966 17.0752 65.8823 16.5399C66.3334 15.2389 67.2157 14.4272 68.486 14.1861C69.7265 13.9522 70.7846 14.3917 71.6237 15.4055C71.7962 15.6182 71.9388 15.8628 72.1146 16.1216ZM72.4596 28.4541C72.2605 31.7757 74.8841 35.8451 79.3453 35.877C83.1397 35.9054 86.2177 32.5874 86.2343 28.5215C86.2509 24.4095 83.1696 21.095 79.332 21.1057C75.0433 21.1198 72.297 25.0511 72.4596 28.4541Z" fill="white"/>
<path d="M52.1871 15.8841C52.4061 15.7104 52.4094 15.4941 52.4857 15.3169C53.1656 13.7572 54.635 12.9419 56.2104 13.2538C57.7096 13.548 58.8208 14.8986 58.9369 16.5718C58.9501 16.7703 58.9435 16.9688 58.9435 17.1673C58.9435 24.1684 58.9435 31.1659 58.9468 38.167C58.9468 38.7377 58.917 39.3049 58.718 39.8366C58.1806 41.2617 57.179 42.0734 55.7594 42.1656C54.3696 42.2542 53.3082 41.5771 52.6084 40.2833C52.4923 40.067 52.4061 39.8295 52.3066 39.6062C52.0677 39.5495 51.9583 39.7374 51.819 39.8437C44.0344 45.7494 33.3078 41.5878 30.8036 31.5275C28.8931 23.8529 32.9894 15.8309 39.968 13.5516C44.0576 12.2152 47.9284 12.8674 51.5138 15.3772C51.7327 15.5296 51.945 15.6997 52.1871 15.8841ZM37.089 27.7097C37.1023 28.3903 37.1586 29.0638 37.3179 29.7267C38.5517 34.8667 44.1837 37.0504 48.0411 33.8848C51.4807 31.0631 51.8389 25.5402 48.7775 22.2613C47.1788 20.5491 45.2218 19.7976 42.9797 20.1804C39.507 20.7795 37.1023 23.899 37.089 27.7097Z" fill="white"/>
<path d="M108.984 22.006C109.893 20.8398 110.775 19.7161 111.654 18.5888C112.672 17.2807 113.671 15.9585 114.709 14.6682C115.631 13.5197 116.795 13.0446 118.198 13.4346C120.397 14.0478 121.399 16.7171 120.201 18.7873C119.966 19.195 119.658 19.553 119.369 19.9252C117.505 22.3251 115.638 24.7178 113.773 27.1177C113.226 27.8231 113.336 27.6884 113.807 28.291C115.823 30.8859 117.847 33.4736 119.863 36.0684C121.475 38.1422 120.696 41.1128 118.331 41.9174C117.017 42.3641 115.621 41.9104 114.686 40.7087C113.04 38.5959 111.402 36.4761 109.76 34.3598C109.608 34.1649 109.458 33.9628 109.299 33.7749C108.951 33.3637 108.934 33.3531 108.586 33.7962C107.103 35.6856 105.631 37.5856 104.158 39.4821C103.836 39.8969 103.528 40.3223 103.199 40.7335C101.956 42.3003 99.8694 42.5343 98.4299 41.2723C96.9473 39.9713 96.7549 37.731 98.0053 36.1145C100.052 33.4736 102.112 30.8433 104.161 28.206C104.563 27.6884 104.563 27.6813 104.158 27.1638C102.175 24.615 100.191 22.0663 98.1977 19.5246C97.405 18.5144 96.9771 17.4154 97.2922 16.0755C97.929 13.3566 100.987 12.3889 102.891 14.3172C103.103 14.5299 103.282 14.7781 103.471 15.0156C105.236 17.2807 106.997 19.5494 108.762 21.8146C108.802 21.8536 108.848 21.882 108.984 22.006Z" fill="#8DBC1A"/>
<path d="M14.5213 12.3853C18.12 12.3783 21.2611 13.6898 23.9808 16.1783C25.5198 17.5856 25.6923 19.8685 24.4153 21.3999C23.3009 22.7398 21.4899 23.0128 20.0836 22.0415C19.795 21.843 19.5396 21.5913 19.271 21.3574C15.8016 18.3584 10.3852 19.2517 7.92081 23.2255C5.18443 27.6388 7.44318 33.6899 12.3554 35.0298C14.9259 35.7317 17.3041 35.2354 19.3771 33.4169C20.4484 32.4775 21.6159 32.1408 22.9294 32.6583C25.082 33.502 25.8018 36.3769 24.3556 38.2769C24.1036 38.6066 23.8051 38.8902 23.49 39.149C20.2959 41.7792 16.6938 42.9349 12.6871 42.3854C7.4664 41.6693 3.59568 38.7803 1.33029 33.6863C-1.98653 26.2173 0.945537 16.5541 9.60575 13.268C11.2575 12.6441 12.7634 12.3853 14.5213 12.3853Z" fill="white"/>
<path d="M126.801 13.0766H125.7V12.3853H128.695V13.0766H127.594V16.0578H126.798V13.0766H126.801Z" fill="white"/>
<path d="M132.254 16.0613L132.25 13.8564L131.239 15.6714H130.881L129.872 13.9025V16.0613H129.126V12.3853H129.783L131.07 14.6682L132.337 12.3853H132.99L133 16.0613H132.254Z" fill="white"/>
</svg>
