<svg width="195" height="32" viewBox="0 0 195 32" fill="none" xmlns="http://www.w3.org/2000/svg">
<path d="M41.4699 9.60699C45.1531 7.30137 49.1721 8.43074 51.4286 11.1176C53.7957 13.9349 54.1161 18.1058 52.1839 21.2615C51.049 23.1125 49.4677 24.3173 47.4516 24.8412C45.4392 25.3651 43.528 25.0226 41.7197 23.9809C41.6129 24.1664 41.6568 24.3316 41.6568 24.4865C41.6549 26.0195 41.6587 27.5505 41.6625 29.0835C41.6644 30.3229 40.9301 31.2566 39.8791 31.3483C38.7689 31.4441 37.8438 30.5655 37.7733 29.3424C37.7599 29.0998 37.7694 28.8531 37.7694 28.6085C37.7694 22.6762 37.7694 16.744 37.7656 10.8097C37.7656 10.4815 37.779 10.1554 37.8858 9.84754C38.1452 9.09939 38.6526 8.63256 39.3831 8.49393C40.0965 8.35939 40.705 8.61217 41.1876 9.1952C41.2867 9.31751 41.3688 9.45817 41.4699 9.60699ZM41.6682 16.6992C41.5538 18.6093 43.0626 20.9496 45.6281 20.9679C47.8102 20.9842 49.5802 19.0761 49.5898 16.7379C49.5993 14.3732 47.8273 12.4671 45.6204 12.4732C43.1541 12.4814 41.5748 14.7421 41.6682 16.6992Z" fill="black"/>
<path d="M30.0201 9.46992C30.146 9.37003 30.1479 9.24568 30.1918 9.14375C30.5828 8.24678 31.4278 7.77791 32.3338 7.9573C33.196 8.1265 33.835 8.9032 33.9017 9.8654C33.9094 9.97956 33.9056 10.0937 33.9056 10.2079C33.9056 14.2341 33.9056 18.2582 33.9075 22.2844C33.9075 22.6126 33.8903 22.9387 33.7759 23.2445C33.4669 24.064 32.8908 24.5309 32.0744 24.5839C31.2752 24.6348 30.6648 24.2455 30.2624 23.5014C30.1956 23.377 30.146 23.2404 30.0888 23.112C29.9515 23.0794 29.8885 23.1874 29.8084 23.2486C25.3317 26.6448 19.163 24.2516 17.7229 18.4661C16.6242 14.0526 18.9799 9.43934 22.9932 8.12854C25.345 7.36 27.571 7.7351 29.6329 9.17841C29.7588 9.26606 29.8809 9.36391 30.0201 9.46992ZM21.3375 16.2706C21.3451 16.662 21.3776 17.0493 21.4691 17.4305C22.1787 20.3864 25.4175 21.6422 27.6358 19.8218C29.6138 18.1991 29.8198 15.023 28.0593 13.1373C27.1399 12.1527 26.0145 11.7205 24.7251 11.9407C22.728 12.2852 21.3451 14.0791 21.3375 16.2706Z" fill="black"/>
<path d="M62.679 12.9908C63.2017 12.3201 63.709 11.6738 64.2145 11.0256C64.8001 10.2734 65.3742 9.51296 65.9713 8.77093C66.5015 8.11043 67.171 7.83726 67.9779 8.06151C69.2425 8.41418 69.8185 9.94922 69.13 11.1397C68.9945 11.3742 68.8171 11.5801 68.6512 11.7941C67.5792 13.1742 66.5053 14.5503 65.4334 15.9304C65.1186 16.336 65.1816 16.2586 65.4524 16.6051C66.6122 18.0974 67.7757 19.5855 68.9354 21.0778C69.8624 22.2703 69.4142 23.9786 68.0542 24.4414C67.2988 24.6982 66.4958 24.4373 65.9579 23.7462C65.0118 22.5313 64.0696 21.3122 63.1254 20.0952C63.0376 19.983 62.9518 19.8668 62.8602 19.7588C62.66 19.5223 62.6504 19.5162 62.4501 19.771C61.5975 20.8576 60.7506 21.9503 59.9037 23.0409C59.7187 23.2794 59.5413 23.524 59.3525 23.7605C58.6372 24.6616 57.4374 24.7961 56.6096 24.0704C55.757 23.3222 55.6463 22.0338 56.3654 21.1043C57.5423 19.5855 58.7268 18.0729 59.9056 16.5562C60.1364 16.2586 60.1364 16.2545 59.9037 15.9569C58.7631 14.4911 57.6224 13.0254 56.4761 11.5638C56.0202 10.9828 55.7741 10.3508 55.9553 9.58024C56.3216 8.01666 58.0802 7.46013 59.1751 8.56911C59.2972 8.69142 59.4002 8.83412 59.5089 8.97071C60.5236 10.2734 61.5365 11.578 62.5512 12.8807C62.5741 12.9031 62.6008 12.9194 62.679 12.9908Z" fill="#8DBC1A"/>
<path d="M8.35087 7.45802C10.4204 7.45395 12.2268 8.20822 13.7909 9.63929C14.6759 10.4486 14.7751 11.7614 14.0407 12.6421C13.3998 13.4127 12.3584 13.5696 11.5496 13.0111C11.3837 12.8969 11.2368 12.7522 11.0823 12.6176C9.08714 10.893 5.97231 11.4067 4.55509 13.692C2.98145 16.23 4.28042 19.7098 7.10532 20.4804C8.58358 20.884 9.95121 20.5986 11.1434 19.5528C11.7595 19.0126 12.4309 18.819 13.1862 19.1166C14.4241 19.6018 14.838 21.255 14.0064 22.3477C13.8614 22.5373 13.6898 22.7004 13.5086 22.8492C11.6717 24.3618 9.60024 25.0264 7.29606 24.7104C4.29377 24.2986 2.0678 22.6372 0.76502 19.7078C-1.14241 15.4125 0.543758 9.85538 5.52406 7.96563C6.47396 7.60684 7.33993 7.45802 8.35087 7.45802Z" fill="black"/>
<path d="M72.9223 7.85553H72.2891V7.45801H74.0115V7.85553H73.3782V9.56996H72.9204V7.85553H72.9223Z" fill="black"/>
<path d="M76.0643 9.572L76.0624 8.30401L75.4807 9.34776H75.2747L74.6948 8.33051V9.572H74.2656V7.45801H74.6433L75.3834 8.77084L76.112 7.45801H76.4878L76.4935 9.572H76.0643Z" fill="black"/>
<path d="M86.418 25V11.688H87.9V13.794H87.978C88.1167 13.4647 88.29 13.1613 88.498 12.884C88.706 12.5893 88.9573 12.3293 89.252 12.104C89.5467 11.8787 89.8933 11.7053 90.292 11.584C90.708 11.4453 91.1933 11.376 91.748 11.376C92.7013 11.376 93.542 11.6013 94.27 12.052C94.998 12.5027 95.5267 13.2133 95.856 14.184H95.934C96.1767 13.404 96.636 12.7453 97.312 12.208C98.0053 11.6533 98.9413 11.376 100.12 11.376C101.541 11.376 102.633 11.818 103.396 12.702C104.159 13.5687 104.54 14.8167 104.54 16.446V25H103.058V16.706C103.058 14.0367 101.94 12.702 99.704 12.702C99.236 12.702 98.794 12.7627 98.378 12.884C97.962 13.0053 97.5893 13.196 97.26 13.456C96.948 13.6987 96.6967 14.0107 96.506 14.392C96.3153 14.756 96.22 15.1807 96.22 15.666V25H94.738V16.706C94.738 14.0367 93.6287 12.702 91.41 12.702C90.9593 12.702 90.5173 12.7627 90.084 12.884C89.668 13.0053 89.2953 13.1873 88.966 13.43C88.6367 13.6727 88.3767 13.9847 88.186 14.366C87.9953 14.73 87.9 15.1547 87.9 15.64V25H86.418ZM109.921 8.074C109.575 8.074 109.315 7.98733 109.141 7.814C108.985 7.64067 108.907 7.41533 108.907 7.138V6.878C108.907 6.60067 108.985 6.37533 109.141 6.202C109.315 6.02867 109.575 5.942 109.921 5.942C110.268 5.942 110.519 6.02867 110.675 6.202C110.849 6.37533 110.935 6.60067 110.935 6.878V7.138C110.935 7.41533 110.849 7.64067 110.675 7.814C110.519 7.98733 110.268 8.074 109.921 8.074ZM109.193 11.688H110.675V25H109.193V11.688ZM115.516 25V11.688H116.998V13.794H117.076C117.37 13.1007 117.83 12.5287 118.454 12.078C119.078 11.61 119.927 11.376 121.002 11.376C122.423 11.376 123.524 11.818 124.304 12.702C125.101 13.5687 125.5 14.8167 125.5 16.446V25H124.018V16.706C124.018 15.354 123.723 14.3487 123.134 13.69C122.562 13.0313 121.721 12.702 120.612 12.702C120.144 12.702 119.693 12.7627 119.26 12.884C118.826 13.0053 118.436 13.1873 118.09 13.43C117.76 13.6727 117.492 13.9847 117.284 14.366C117.093 14.73 116.998 15.1547 116.998 15.64V25H115.516ZM132.454 25C131.917 25 131.509 24.8527 131.232 24.558C130.955 24.2633 130.816 23.8647 130.816 23.362V12.988H128.502V11.688H130.01C130.374 11.688 130.617 11.6187 130.738 11.48C130.877 11.324 130.946 11.0553 130.946 10.674V7.97H132.298V11.688H135.314V12.988H132.298V23.7H135.106V25H132.454Z" fill="black"/>
</svg>
