<svg width="24" height="24" viewBox="0 0 24 24" fill="none" xmlns="http://www.w3.org/2000/svg">
<circle cx="12" cy="12" r="12" fill="#A0B2F8"/>
<circle cx="12" cy="12" r="11.25" fill="#8162F4"/>
<circle cx="12" cy="12" r="11.25" fill="url(#paint0_linear_1889_5639)"/>
<path opacity="0.8" d="M13.9686 12.3402L12.1492 15.7693L10.324 12.3345L9.52051 13.809L11.1276 16.8266C11.1735 16.9066 11.2137 16.9866 11.2596 17.0666L11.3342 17.2095C11.3514 17.2381 11.3629 17.2667 11.3801 17.2895C11.426 17.3753 11.4662 17.4553 11.5178 17.5124C11.6613 17.6839 11.8966 17.7925 12.1377 17.7925C12.1894 17.7925 12.241 17.7868 12.2927 17.781C12.396 17.7639 12.4936 17.7239 12.5969 17.6667C12.6657 17.6267 12.7289 17.5639 12.8035 17.4496C12.9584 17.2324 13.079 16.9981 13.211 16.7523L13.2856 16.6094L14.7779 13.8033L13.9686 12.3402Z" fill="white"/>
<path opacity="0.8" d="M9.89569 11.5344L7.03744 6.14499H7.0317L6.91117 5.93353C6.87673 5.87066 6.83082 5.81923 6.76195 5.76208C6.61272 5.65349 6.44627 5.60205 6.24539 5.60205C6.03877 5.60205 5.87807 5.65349 5.72884 5.77351C5.57962 5.88781 5.51074 6.01926 5.51074 6.17928C5.51074 6.27644 5.5337 6.36217 5.58535 6.44218L5.59109 6.45361L9.05773 12.9518L9.89569 11.5344Z" fill="white"/>
<path opacity="0.8" d="M18.5375 5.77351C18.3882 5.6592 18.2218 5.60205 18.0209 5.60205C17.8143 5.60205 17.6536 5.65349 17.5101 5.76779C17.4068 5.84209 17.3494 5.9221 17.3207 6.01354L17.3149 6.0364L14.3936 11.5401L15.2315 12.9518L18.6752 6.45933L18.7154 6.35645C18.7383 6.2993 18.7498 6.24215 18.7498 6.17357C18.7556 6.01926 18.6867 5.88781 18.5375 5.77351Z" fill="white"/>
<path d="M12.132 5.60205C12.3731 5.60205 12.6084 5.70492 12.7519 5.88209C12.8035 5.94496 12.8437 6.02497 12.8896 6.10499C12.9011 6.13356 12.9183 6.16214 12.9355 6.185L13.0102 6.32788C13.0561 6.40789 13.0962 6.4879 13.1422 6.56792L18.6635 16.9467L18.6693 16.9581C18.7209 17.0381 18.7439 17.1239 18.7439 17.221C18.7439 17.381 18.675 17.5125 18.5258 17.6211C18.3766 17.7354 18.2101 17.7925 18.0092 17.7925C17.8084 17.7925 17.6419 17.7411 17.4927 17.6268C17.4295 17.5696 17.3779 17.5125 17.3435 17.4553L17.2229 17.2439H17.2172L12.1091 7.63094L6.94354 17.3582L6.9378 17.381C6.9091 17.4668 6.84597 17.5468 6.74839 17.6268C6.60491 17.7411 6.4442 17.7925 6.23758 17.7925C6.03096 17.7925 5.87026 17.7411 5.72103 17.6211C5.5718 17.5068 5.50293 17.3753 5.50293 17.221C5.50293 17.1524 5.51441 17.0896 5.53737 17.0381L5.57754 16.9353L10.9669 6.78509L11.0415 6.64221C11.1735 6.39646 11.2941 6.16214 11.449 5.94496C11.5236 5.83637 11.5868 5.77351 11.6556 5.72778C11.759 5.66492 11.8623 5.62491 11.9598 5.61348C12.0287 5.60777 12.0804 5.60205 12.132 5.60205Z" fill="white"/>
<defs>
<linearGradient id="paint0_linear_1889_5639" x1="12" y1="26.0625" x2="12" y2="-0.0535714" gradientUnits="userSpaceOnUse">
<stop stop-color="#301E47"/>
<stop offset="1" stop-opacity="0"/>
</linearGradient>
</defs>
</svg>
