<svg width="35" height="35" viewBox="0 0 35 35" fill="none" xmlns="http://www.w3.org/2000/svg">
<path d="M17.503 0.425171C26.9296 0.425171 34.5829 8.0785 34.5829 17.5034C34.5829 26.93 26.9296 34.5833 17.503 34.5833C8.07814 34.5833 0.424805 26.93 0.424805 17.5034C0.424805 8.0785 8.07814 0.425171 17.503 0.425171ZM17.503 2.98767C9.49093 2.98767 2.9873 9.4913 2.9873 17.5034C2.9873 25.5155 9.49093 32.0208 17.503 32.0208C25.5151 32.0208 32.0204 25.5155 32.0204 17.5034C32.0204 9.4913 25.5151 2.98767 17.503 2.98767ZM17.503 14.0918C16.7958 14.0918 16.2218 14.6658 16.2218 15.3731V24.7689C16.2218 25.4762 16.7958 26.0502 17.503 26.0502C18.2103 26.0502 18.7843 25.4762 18.7843 24.7689V15.3731C18.7843 14.6658 18.2103 14.0918 17.503 14.0918ZM17.4996 8.96684C18.4426 8.96684 19.2079 9.73217 19.2079 10.6752C19.2079 11.6182 18.4426 12.3835 17.4996 12.3835C16.5566 12.3835 15.7913 11.6182 15.7913 10.6752C15.7913 9.73217 16.5566 8.96684 17.4996 8.96684Z" fill="#A2A2A2"/>
</svg>
