<svg width="10" height="10" viewBox="0 0 10 10" fill="none" xmlns="http://www.w3.org/2000/svg">
    <g opacity="0.5">
        <path d="M5 0C2.23884 0 0 2.23884 0 5C0 7.76116 2.23884 10 5 10C7.76116 10 10 7.76116 10 5C10 2.23884 7.76116 0 5 0ZM5 9.15179C2.70759 9.15179 0.848214 7.29241 0.848214 5C0.848214 2.70759 2.70759 0.848214 5 0.848214C7.29241 0.848214 9.15179 2.70759 9.15179 5C9.15179 7.29241 7.29241 9.15179 5 9.15179Z" fill="#F1FAF2" />
        <path d="M4.46436 3.03571C4.46436 3.17779 4.5208 3.31406 4.62126 3.41452C4.72173 3.51499 4.85799 3.57143 5.00007 3.57143C5.14215 3.57143 5.27841 3.51499 5.37888 3.41452C5.47934 3.31406 5.53578 3.17779 5.53578 3.03571C5.53578 2.89363 5.47934 2.75737 5.37888 2.65691C5.27841 2.55644 5.14215 2.5 5.00007 2.5C4.85799 2.5 4.72173 2.55644 4.62126 2.65691C4.5208 2.75737 4.46436 2.89363 4.46436 3.03571V3.03571ZM5.26793 4.28571H4.73221C4.68311 4.28571 4.64293 4.32589 4.64293 4.375V7.41071C4.64293 7.45982 4.68311 7.5 4.73221 7.5H5.26793C5.31703 7.5 5.35721 7.45982 5.35721 7.41071V4.375C5.35721 4.32589 5.31703 4.28571 5.26793 4.28571Z" fill="#F1FAF2" />
    </g>
</svg>
