<svg width="50" height="50" viewBox="0 0 50 50" fill="none" xmlns="http://www.w3.org/2000/svg">
<path d="M43.016 5.57129L27.4009 17.1689L30.2885 10.3265L43.016 5.57129Z" fill="#E2761B" stroke="#E2761B" stroke-linecap="round" stroke-linejoin="round"/>
<path d="M6.96826 5.57129L22.4579 17.2788L19.7115 10.3265L6.96826 5.57129Z" fill="#E4761B" stroke="#E4761B" stroke-linecap="round" stroke-linejoin="round"/>
<path d="M37.3981 32.4543L33.2393 38.8259L42.1376 41.2742L44.6956 32.5956L37.3981 32.4543Z" fill="#E4761B" stroke="#E4761B" stroke-linecap="round" stroke-linejoin="round"/>
<path d="M5.32031 32.5956L7.86268 41.2742L16.761 38.8259L12.6022 32.4543L5.32031 32.5956Z" fill="#E4761B" stroke="#E4761B" stroke-linecap="round" stroke-linejoin="round"/>
<path d="M16.2589 21.6885L13.7793 25.4393L22.6148 25.8316L22.301 16.3369L16.2589 21.6885Z" fill="#E4761B" stroke="#E4761B" stroke-linecap="round" stroke-linejoin="round"/>
<path d="M33.7254 21.6889L27.6049 16.2275L27.4009 25.832L36.2207 25.4397L33.7254 21.6889Z" fill="#E4761B" stroke="#E4761B" stroke-linecap="round" stroke-linejoin="round"/>
<path d="M16.7607 38.8261L22.0652 36.2366L17.4827 32.6584L16.7607 38.8261Z" fill="#E4761B" stroke="#E4761B" stroke-linecap="round" stroke-linejoin="round"/>
<path d="M27.9194 36.2366L33.2396 38.8261L32.502 32.6584L27.9194 36.2366Z" fill="#E4761B" stroke="#E4761B" stroke-linecap="round" stroke-linejoin="round"/>
<path d="M33.2396 38.8263L27.9194 36.2368L28.3432 39.7051L28.2961 41.1646L33.2396 38.8263Z" fill="#D7C1B3" stroke="#D7C1B3" stroke-linecap="round" stroke-linejoin="round"/>
<path d="M16.7612 38.8263L21.7047 41.1646L21.6733 39.7051L22.0657 36.2368L16.7612 38.8263Z" fill="#D7C1B3" stroke="#D7C1B3" stroke-linecap="round" stroke-linejoin="round"/>
<path d="M21.7825 30.3672L17.3569 29.0646L20.48 27.6365L21.7825 30.3672Z" fill="#233447" stroke="#233447" stroke-linecap="round" stroke-linejoin="round"/>
<path d="M28.2012 30.3672L29.5037 27.6365L32.6425 29.0646L28.2012 30.3672Z" fill="#233447" stroke="#233447" stroke-linecap="round" stroke-linejoin="round"/>
<path d="M16.7613 38.8262L17.5146 32.4546L12.6025 32.5958L16.7613 38.8262Z" fill="#CD6116" stroke="#CD6116" stroke-linecap="round" stroke-linejoin="round"/>
<path d="M32.4863 32.4546L33.2396 38.8262L37.3984 32.5958L32.4863 32.4546Z" fill="#CD6116" stroke="#CD6116" stroke-linecap="round" stroke-linejoin="round"/>
<path d="M36.2222 25.4395L27.4023 25.8318L28.2184 30.3673L29.521 27.6366L32.6597 29.0647L36.2222 25.4395Z" fill="#CD6116" stroke="#CD6116" stroke-linecap="round" stroke-linejoin="round"/>
<path d="M17.3574 29.0647L20.4962 27.6366L21.7831 30.3673L22.6148 25.8318L13.7793 25.4395L17.3574 29.0647Z" fill="#CD6116" stroke="#CD6116" stroke-linecap="round" stroke-linejoin="round"/>
<path d="M13.7793 25.4395L17.483 32.6585L17.3574 29.0647L13.7793 25.4395Z" fill="#E4751F" stroke="#E4751F" stroke-linecap="round" stroke-linejoin="round"/>
<path d="M32.6589 29.0647L32.502 32.6585L36.2213 25.4395L32.6589 29.0647Z" fill="#E4751F" stroke="#E4751F" stroke-linecap="round" stroke-linejoin="round"/>
<path d="M22.615 25.8318L21.7832 30.3673L22.819 35.7188L23.0544 28.6723L22.615 25.8318Z" fill="#E4751F" stroke="#E4751F" stroke-linecap="round" stroke-linejoin="round"/>
<path d="M27.4013 25.8318L26.9775 28.6566L27.1659 35.7188L28.2174 30.3673L27.4013 25.8318Z" fill="#E4751F" stroke="#E4751F" stroke-linecap="round" stroke-linejoin="round"/>
<path d="M28.217 30.3673L27.1655 35.7188L27.9188 36.2367L32.5014 32.6585L32.6583 29.0647L28.217 30.3673Z" fill="#F6851B" stroke="#F6851B" stroke-linecap="round" stroke-linejoin="round"/>
<path d="M17.3569 29.0647L17.4825 32.6585L22.0651 36.2367L22.8183 35.7188L21.7826 30.3673L17.3569 29.0647Z" fill="#F6851B" stroke="#F6851B" stroke-linecap="round" stroke-linejoin="round"/>
<path d="M28.2961 41.1645L28.3432 39.705L27.9508 39.3598H22.0343L21.6733 39.705L21.7047 41.1645L16.7612 38.8262L18.4875 40.2386L21.9872 42.6711H27.9979L31.5133 40.2386L33.2396 38.8262L28.2961 41.1645Z" fill="#C0AD9E" stroke="#C0AD9E" stroke-linecap="round" stroke-linejoin="round"/>
<path d="M27.9189 36.2364L27.1656 35.7185H22.8185L22.0652 36.2364L21.6729 39.7047L22.0338 39.3594H27.9503L28.3426 39.7047L27.9189 36.2364Z" fill="#161616" stroke="#161616" stroke-linecap="round" stroke-linejoin="round"/>
<path d="M43.6754 17.9222L45.0093 11.5192L43.0162 5.57129L27.9189 16.7766L33.7256 21.6887L41.9334 24.0898L43.7538 21.9712L42.9691 21.4062L44.2246 20.2606L43.2516 19.5073L44.5071 18.5499L43.6754 17.9222Z" fill="#763D16" stroke="#763D16" stroke-linecap="round" stroke-linejoin="round"/>
<path d="M4.99072 11.5192L6.32468 17.9222L5.47723 18.5499L6.73272 19.5073L5.77541 20.2606L7.0309 21.4062L6.24622 21.9712L8.05099 24.0898L16.2588 21.6887L22.0654 16.7766L6.96812 5.57129L4.99072 11.5192Z" fill="#763D16" stroke="#763D16" stroke-linecap="round" stroke-linejoin="round"/>
<path d="M41.9334 24.0899L33.7256 21.6887L36.2209 25.4395L32.5015 32.6586L37.3979 32.5958H44.6954L41.9334 24.0899Z" fill="#F6851B" stroke="#F6851B" stroke-linecap="round" stroke-linejoin="round"/>
<path d="M16.2588 21.6887L8.05101 24.0899L5.32031 32.5958H12.6022L17.4829 32.6586L13.7792 25.4395L16.2588 21.6887Z" fill="#F6851B" stroke="#F6851B" stroke-linecap="round" stroke-linejoin="round"/>
<path d="M27.4008 25.8318L27.9187 16.7765L30.3041 10.3264H19.7109L22.065 16.7765L22.6143 25.8318L22.8026 28.688L22.8183 35.7188H27.1654L27.1968 28.688L27.4008 25.8318Z" fill="#F6851B" stroke="#F6851B" stroke-linecap="round" stroke-linejoin="round"/>
</svg>
