<svg width="18" height="18" viewBox="0 0 18 18" fill="none" xmlns="http://www.w3.org/2000/svg">
    <path d="M7.47754 2.08203H6.1416L6.1416 10.4974H7.47754L7.47754 2.08203Z" fill="url(#paint0_linear_2318_44929)" />
    <path d="M9.48338 5.82441L6.80588 3.0548L4.13576 5.81703L3.17529 4.88855L6.80588 1.13281L10.4438 4.89594L9.48338 5.82441Z" fill="url(#paint1_linear_2318_44929)" />
    <path d="M11.8022 7.85547H10.4663L10.4663 15.9193H11.8022L11.8022 7.85547Z" fill="url(#paint2_linear_2318_44929)" />
    <path d="M11.138 16.8674L7.5 13.1043L8.46047 12.1758L11.138 14.9454L13.8081 12.1832L14.7686 13.1116L11.138 16.8674Z" fill="url(#paint3_linear_2318_44929)" />
    <defs>
        <linearGradient id="paint0_linear_2318_44929" x1="7.31055" y1="13.3295" x2="7.31055" y2="2.08203" gradientUnits="userSpaceOnUse">
            <stop stop-color="#2D884C" />
            <stop offset="1" stop-color="#87DFA5" />
        </linearGradient>
        <linearGradient id="paint1_linear_2318_44929" x1="9.53528" y1="7.40332" x2="9.53528" y2="1.13281" gradientUnits="userSpaceOnUse">
            <stop stop-color="#2D884C" />
            <stop offset="1" stop-color="#87DFA5" />
        </linearGradient>
        <linearGradient id="paint2_linear_2318_44929" x1="11.6353" y1="18.633" x2="11.6353" y2="7.85547" gradientUnits="userSpaceOnUse">
            <stop stop-color="#2D884C" />
            <stop offset="1" stop-color="#87DFA5" />
        </linearGradient>
        <linearGradient id="paint3_linear_2318_44929" x1="13.86" y1="18.4463" x2="13.86" y2="12.1758" gradientUnits="userSpaceOnUse">
            <stop stop-color="#2D884C" />
            <stop offset="1" stop-color="#87DFA5" />
        </linearGradient>
    </defs>
</svg>
