<svg width="48" height="48" viewBox="0 0 48 48" fill="none" xmlns="http://www.w3.org/2000/svg">
<path d="M43.6701 2.84H4.33008C3.79965 2.84 3.29094 3.05071 2.91586 3.42578C2.54079 3.80086 2.33008 4.30956 2.33008 4.84V43.16C2.33008 43.6904 2.54079 44.1991 2.91586 44.5742C3.29094 44.9493 3.79965 45.16 4.33008 45.16H43.6701C44.2005 45.16 44.7092 44.9493 45.0843 44.5742C45.4594 44.1991 45.6701 43.6904 45.6701 43.16V4.84C45.6701 4.30956 45.4594 3.80086 45.0843 3.42578C44.7092 3.05071 44.2005 2.84 43.6701 2.84ZM33.3501 25.23L25.3501 34.13C25.1793 34.3253 24.9686 34.4819 24.7323 34.5891C24.4961 34.6964 24.2396 34.7519 23.9801 34.7519C23.7206 34.7519 23.4641 34.6964 23.2278 34.5891C22.9915 34.4819 22.7809 34.3253 22.6101 34.13L14.6101 25.23C14.3065 24.8922 14.1385 24.4541 14.1385 24C14.1385 23.5459 14.3065 23.1078 14.6101 22.77L22.6101 13.87C22.7874 13.6855 23.0001 13.5387 23.2355 13.4384C23.4709 13.3382 23.7242 13.2865 23.9801 13.2865C24.236 13.2865 24.4892 13.3382 24.7246 13.4384C24.96 13.5387 25.1728 13.6855 25.3501 13.87L33.3501 22.77C33.6537 23.1078 33.8216 23.5459 33.8216 24C33.8216 24.4541 33.6537 24.8922 33.3501 25.23Z" fill="#F1FAF2"/>
</svg>
