<svg width="48" height="48" viewBox="0 0 48 48" fill="none" xmlns="http://www.w3.org/2000/svg">
<path d="M43.6701 2.83987H4.33008C3.79965 2.83987 3.29094 3.05059 2.91586 3.42566C2.54079 3.80073 2.33008 4.30944 2.33008 4.83987V43.1599C2.33008 43.6903 2.54079 44.199 2.91586 44.5741C3.29094 44.9492 3.79965 45.1599 4.33008 45.1599H43.6701C44.2005 45.1599 44.7092 44.9492 45.0843 44.5741C45.4594 44.199 45.6701 43.6903 45.6701 43.1599V4.83987C45.6701 4.30944 45.4594 3.80073 45.0843 3.42566C44.7092 3.05059 44.2005 2.83987 43.6701 2.83987ZM41.6701 41.1599H6.33008V6.83987H41.6701V41.1599Z" fill="#F1FAF2"/>
<path d="M22.5101 34.9999C22.6978 35.2127 22.9286 35.3831 23.1872 35.4999C23.4459 35.6166 23.7264 35.677 24.0101 35.677C24.2939 35.677 24.5744 35.6166 24.833 35.4999C25.0916 35.3831 25.3224 35.2127 25.5101 34.9999L34.1801 25.3299C34.509 24.963 34.6909 24.4876 34.6909 23.9949C34.6909 23.5022 34.509 23.0268 34.1801 22.6599L25.4901 12.9999C25.2975 12.7953 25.0651 12.6322 24.8071 12.5208C24.5491 12.4093 24.2711 12.3518 23.9901 12.3518C23.7091 12.3518 23.4311 12.4093 23.1731 12.5208C22.9151 12.6322 22.6827 12.7953 22.4901 12.9999L13.8201 22.6799C13.4912 23.0468 13.3093 23.5222 13.3093 24.0149C13.3093 24.5076 13.4912 24.983 13.8201 25.3499L22.5101 34.9999ZM24.0001 17.3199L30.0001 23.9999L24.0001 30.6799L18.0001 23.9999L24.0001 17.3199Z" fill="#F1FAF2"/>
</svg>
